<?xml version="1.0" encoding="utf-8"?>
<!-- Generator: Adobe Illustrator 24.0.0, SVG Export Plug-In . SVG Version: 6.00 Build 0)  -->
<svg version="1.1" id="Layer_1" xmlns="http://www.w3.org/2000/svg" xmlns:xlink="http://www.w3.org/1999/xlink" x="0px" y="0px" 
	 width="287px" height="auto" viewBox="0 0 187 36" style="enable-background:new 0 0 187 36;" xml:space="preserve">
<style type="text/css">
	.st0{fill:#FFFFFF;}
	.st1{fill:none;}
</style>
<title>Član Wine Friends grupacije</title>
<path class="st0" d="M42.6,4c-0.1-0.2-0.3-0.4-0.5-0.4H28.7c-0.2,0-0.5,0.2-0.5,0.4l-3.1,14.6c-0.1,0.3,0.2,0.6,0.5,0.6h19.5
	c0.3,0,0.6-0.3,0.5-0.6L42.6,4z"/>
<path class="st0" d="M8.8,19.2h14.6l0.1-0.3l2.7-12.7c0-0.1,0-0.1,0-0.2l-0.4-2c-0.1-0.2-0.3-0.4-0.5-0.4H11.9
	c-0.2,0-0.5,0.2-0.5,0.4L8.3,18.6C8.3,18.9,8.5,19.2,8.8,19.2"/>
<path class="st0" d="M45.1,20.7h-9.8h-6.8h-3h-6.8H8.9c-0.4,0-0.7,0.5-0.4,0.8l4.7,5.6l3.3,3.9c1.1,1.3,3.2,1.3,4.3,0l3.3-3.9
	l2.9-3.4l2.9,3.4l3.3,3.9c1.1,1.3,3.2,1.3,4.3,0l3.3-3.9l4.7-5.6C45.8,21.2,45.6,20.7,45.1,20.7"/>
<line class="st1" x1="-89.6" y1="60.4" x2="213.3" y2="60.4"/>
<polygon class="st0" points="49.3,20.7 49.3,21.4 50.6,21.5 50.6,31.3 49.4,31.4 49.4,32.1 54.3,32.1 54.3,31.4 51.9,31.3 
	51.9,26.7 54.9,26.7 55.2,28 55.9,28 55.9,24.6 55.2,24.6 54.9,25.9 51.9,25.9 51.9,21.4 56.2,21.5 56.6,23.2 57.5,23.2 57.3,20.7 
	"/>
<path class="st0" d="M63.1,26.3h-1c-0.6,0-0.9,0-1.1,0v-4.8c0.1,0,0.2,0,0.5,0c0.3,0,0.7-0.1,1.1-0.1c1,0,1.8,0.2,2.2,0.6
	c0.4,0.4,0.6,1,0.6,1.7c0,0.8-0.2,1.5-0.6,1.9C64.3,26,63.8,26.3,63.1,26.3 M67.1,30.7c-0.2-0.3-0.5-0.8-0.8-1.4
	c-0.4-0.7-0.7-1.3-1-1.7c-0.3-0.4-0.5-0.7-0.8-0.9c0.7-0.2,1.3-0.6,1.7-1.2c0.4-0.6,0.6-1.3,0.6-2c0-1-0.3-1.8-0.9-2.3
	c-0.6-0.5-1.7-0.7-3.1-0.7c-0.2,0-0.6,0-1.1,0.1c-0.5,0-0.9,0.1-1.2,0.1h-1.9v0.6l1.2,0.2v9.8l-1.3,0.1v0.7h4.1v-0.7L61,31.3V27
	c0.2,0,0.9,0,2.2,0c0.3,0.2,0.5,0.5,0.8,0.9c0.3,0.4,0.6,1.1,1,1.9c0.4,0.8,0.7,1.3,0.9,1.7c0.2,0.3,0.4,0.5,0.6,0.5h1.8v-0.6
	l-0.6-0.2C67.5,31.2,67.3,31.1,67.1,30.7"/>
<line class="st1" x1="-89.6" y1="60.4" x2="213.3" y2="60.4"/>
<polygon class="st0" points="68.9,21.4 70.4,21.5 70.4,31.3 68.9,31.4 68.9,32.1 73.1,32.1 73.1,31.4 71.6,31.3 71.6,21.5 
	73.1,21.4 73.1,20.7 68.9,20.7 "/>
<polygon class="st0" points="81.7,31.2 77.1,31.3 77.1,26.6 79.9,26.6 80.1,27.9 80.8,27.9 80.8,24.5 80.1,24.5 79.9,25.8 
	77.1,25.9 77.1,21.4 81.2,21.5 81.6,22.9 82.3,22.9 82.1,20.7 74.5,20.7 74.5,21.4 75.8,21.5 75.8,31.3 74.5,31.4 74.5,32.1 
	82.8,32.1 83.3,29.5 82.5,29.2 "/>
<polygon class="st0" points="91.6,21.4 92.9,21.5 92.9,30.1 92.1,28.5 86.6,20.7 84.2,20.7 84.2,21.4 85.4,21.5 85.4,31.3 
	84.2,31.4 84.2,32.1 87.7,32.1 87.7,31.4 86.3,31.3 86.3,22.1 87.6,24.2 93,32.1 93.8,32.1 93.8,21.5 95.1,21.4 95.1,20.7 
	91.6,20.7 "/>
<path class="st0" d="M104.3,29.1c-0.4,0.8-0.9,1.3-1.5,1.7c-0.6,0.4-1.4,0.6-2.2,0.6h-0.5c-0.6,0-1.1,0-1.5-0.1v-9.9
	c0.1,0,0.3,0,0.5,0c0.4,0,0.8-0.1,1.1-0.1c3.1,0,4.7,1.7,4.7,5C104.9,27.4,104.7,28.3,104.3,29.1 M100.6,20.6c-0.3,0-0.8,0-1.3,0.1
	c-0.6,0-1,0.1-1.4,0.1h-1.9v0.7l1.2,0.2v9.8L96,31.4v0.7h2c0.3,0,0.8,0,1.5,0.1c0.6,0,0.9,0.1,1.2,0.1c1.1,0,2.1-0.3,2.9-0.8
	c0.9-0.5,1.5-1.2,2-2.2c0.5-0.9,0.7-2,0.7-3.2c0-1.7-0.5-3.1-1.4-4C103.9,21.1,102.5,20.6,100.6,20.6"/>
<path class="st0" d="M113.2,26.6c-0.4-0.3-1-0.5-1.7-0.9c-0.7-0.3-1.2-0.6-1.6-0.8c-0.3-0.2-0.6-0.4-0.8-0.7c-0.2-0.3-0.3-0.6-0.3-1
	c0-0.6,0.2-1.1,0.6-1.4c0.4-0.3,1-0.5,1.7-0.5c0.4,0,0.8,0,1.1,0.1c0.4,0.1,0.6,0.2,0.7,0.3l0.3,1.9h0.8l0.1-2.5
	c-0.1,0-0.2-0.1-0.5-0.1c-0.5-0.1-0.9-0.2-1.3-0.3c-0.3-0.1-0.7-0.1-1.1-0.1c-0.7,0-1.3,0.1-1.9,0.4c-0.5,0.2-1,0.6-1.3,1
	c-0.3,0.4-0.5,0.9-0.5,1.5c0,0.6,0.2,1.1,0.5,1.6c0.3,0.4,0.7,0.8,1.1,1c0.4,0.3,0.9,0.5,1.5,0.8c0.6,0.3,1.1,0.5,1.5,0.7
	c0.4,0.2,0.7,0.5,0.9,0.8c0.2,0.3,0.3,0.7,0.3,1.1c0,0.7-0.2,1.2-0.7,1.6c-0.4,0.4-1.1,0.6-1.9,0.6c-0.5,0-1-0.1-1.4-0.2
	c-0.4-0.1-0.7-0.3-0.9-0.5l-0.2-2h-0.8l-0.1,2.7c0.1,0,0.3,0.1,0.6,0.2c0.5,0.2,1,0.3,1.4,0.4c0.4,0.1,0.9,0.1,1.4,0.1
	c0.8,0,1.5-0.2,2.1-0.5c0.6-0.3,1.1-0.7,1.4-1.2c0.3-0.5,0.5-1,0.5-1.6c0-0.6-0.2-1.1-0.5-1.5C114,27.2,113.7,26.8,113.2,26.6"/>
<line class="st1" x1="-89.6" y1="60.4" x2="213.3" y2="60.4"/>
<polygon class="st0" points="54.4,16.9 55.7,16.9 58.5,7.6 61.4,16.9 62.8,16.9 66.4,4.6 67.6,4.4 67.6,3.6 63.4,3.6 63.4,4.4 
	65.3,4.6 62.9,13 62.3,16 61.6,13 59.1,4.6 60.9,4.4 60.9,3.6 56.3,3.6 56.3,4.4 57.6,4.6 58.1,6 55.9,13 55.2,15.8 54.7,13 
	52.1,4.6 53.8,4.4 53.8,3.6 49.3,3.6 49.3,4.4 50.6,4.6 "/>
<polygon class="st0" points="72.9,16.1 71.2,15.9 71.2,4.6 72.9,4.4 72.9,3.6 68,3.6 68,4.4 69.7,4.6 69.7,15.9 68,16 68,16.8 
	72.9,16.8 "/>
<polygon class="st0" points="78.7,16 77,15.9 77,5.3 78.5,7.6 84.9,16.8 85.8,16.8 85.8,4.6 87.2,4.4 87.2,3.6 83.2,3.6 83.2,4.4 
	84.7,4.6 84.7,14.5 83.7,12.7 77.4,3.6 74.6,3.6 74.6,4.4 76,4.6 76,15.9 74.6,16 74.6,16.8 78.7,16.8 "/>
<polygon class="st0" points="98.5,13.8 97.6,13.5 96.7,15.8 91.3,15.9 91.3,10.4 94.5,10.5 94.8,12 95.6,12 95.6,8.1 94.8,8.1 
	94.5,9.5 91.3,9.6 91.3,4.4 96,4.5 96.5,6.2 97.3,6.2 97.1,3.6 88.3,3.6 88.3,4.4 89.8,4.6 89.8,15.9 88.3,16 88.3,16.8 97.9,16.8 
	"/>
<path class="st0" d="M109.6,15.8c-0.5,0.1-0.9,0.2-1.4,0.2c-1,0-1.8-0.2-2.4-0.7c-0.6-0.5-0.8-1.1-0.8-1.9c0-0.5,0.2-1,0.5-1.4
	c0.3-0.4,0.7-0.8,1.3-1.2l0.2,0.3c1.8,2.1,3.1,3.4,3.8,4.1C110.5,15.5,110.1,15.7,109.6,15.8 M106.1,6.3c0-0.6,0.2-1.1,0.6-1.5
	c0.4-0.4,0.8-0.6,1.4-0.6c0.7,0,1.1,0.2,1.4,0.6c0.3,0.4,0.4,0.8,0.4,1.2c0,0.5-0.1,1-0.2,1.4c-0.2,0.4-0.4,0.7-0.7,1
	c-0.3,0.3-0.8,0.7-1.3,1.1c-0.4-0.5-0.8-1-1-1.5C106.2,7.5,106.1,7,106.1,6.3 M113.9,10.6l1.5-0.2V9.6h-4.1v0.9l1.5,0.2
	c0,0.1,0,0.3,0,0.5c0,0.6-0.1,1.1-0.2,1.7c-0.2,0.6-0.4,1-0.7,1.4l-0.5-0.5c-0.4-0.5-1-1.1-1.7-1.8c-0.7-0.8-1.2-1.4-1.6-1.9
	c0.8-0.6,1.4-1,1.7-1.3c0.4-0.3,0.7-0.7,0.9-1.2c0.3-0.5,0.4-1.1,0.4-1.8c0-0.4-0.1-0.8-0.3-1.1c-0.2-0.4-0.6-0.7-1-0.9
	c-0.5-0.2-1-0.4-1.7-0.4c-0.6,0-1.2,0.1-1.7,0.4c-0.5,0.3-0.9,0.6-1.2,1.1c-0.3,0.5-0.4,1-0.4,1.5c0,0.6,0.2,1.3,0.5,1.9
	c0.3,0.7,0.7,1.3,1.1,1.9c-1.8,0.7-2.7,1.8-2.7,3.3c0,1.1,0.4,1.9,1.2,2.5c0.8,0.6,1.9,0.9,3.3,0.9c0.5,0,1.1-0.1,1.7-0.3
	c0.6-0.2,1.1-0.5,1.6-0.9c0.5,0.4,0.9,0.7,1.2,0.9c0.3,0.2,0.7,0.3,1.1,0.3c0.2,0,0.3,0,0.6,0c0.2,0,0.4-0.1,0.5-0.1v-0.7
	c-0.5,0-0.9-0.1-1.2-0.3c-0.3-0.2-0.7-0.5-1.1-0.9c0.5-0.5,0.8-1.1,1.1-1.9C113.8,12.3,113.9,11.5,113.9,10.6"/>
<line class="st1" x1="-89.6" y1="60.4" x2="213.3" y2="60.4"/>
<line class="st1" x1="-89.6" y1="60.4" x2="213.3" y2="60.4"/>
<line class="st1" x1="-89.6" y1="60.4" x2="213.3" y2="60.4"/>
<line class="st1" x1="-89.6" y1="60.4" x2="213.3" y2="60.4"/>
</svg>
